# xmcd
#
# Track frame offsets: 
#        150
#        17670
#        31292
#        45816
#        64900
#        74867
#        90367
#        105210
#        117411
#        131628
#        143292
#
# Disc length: 2064 seconds
#
# Revision: 6
# Processed by: cddbd v1.5.2PL0 Copyright (c) Steve Scherf et al.
# Submitted via: ExactAudioCopy v1.0b1
#
DISCID=88080e0b
DTITLE=Niemen - Od poczatku CD4 - Czy mnie jeszcze pamietasz?
DYEAR=2002
DGENRE=Blues
TTITLE0=Wiem, ze nie wrocisz
TTITLE1=Baw sie w ciuciubabke
TTITLE2=Obok nas
TTITLE3=Nie wiem, czy to warto
TTITLE4=Przyjdz w taka noc
TTITLE5=Czy mnie jeszcze pamietasz
TTITLE6=Pod papugami
TTITLE7=Jeszcze sen
TTITLE8=Stoje w oknie
TTITLE9=Czas jak rzeka
TTITLE10=Ach, jakie oczy
EXTD=
EXTT0=
EXTT1=
EXTT2=
EXTT3=
EXTT4=
EXTT5=
EXTT6=
EXTT7=
EXTT8=
EXTT9=
EXTT10=
PLAYORDER=
